<svg width="1414" height="849" viewBox="0 0 1414 849" fill="none" xmlns="http://www.w3.org/2000/svg">
<g filter="url(#filter0_f_3819_22549)">
<circle cx="5.88682" cy="5.88682" r="5.88682" transform="matrix(-0.661359 0.750181 -0.661359 -0.750181 101.513 105.225)" fill="white"/>
<rect width="15.4529" height="140.195" rx="7.72646" transform="matrix(-0.661359 0.750181 -0.661359 -0.750181 103.946 105.776)" fill="url(#paint0_linear_3819_22549)" fill-opacity="0.54"/>
<rect width="15.4529" height="52.0802" rx="7.72646" transform="matrix(-0.661359 0.750181 -0.661359 -0.750181 103.946 105.776)" fill="url(#paint1_linear_3819_22549)"/>
</g>
<g filter="url(#filter1_f_3819_22549)">
<circle cx="5.88682" cy="5.88682" r="5.88682" transform="matrix(-0.661359 0.750181 -0.661359 -0.750181 446.848 284.287)" fill="white"/>
<rect width="15.4529" height="140.195" rx="7.72646" transform="matrix(-0.661359 0.750181 -0.661359 -0.750181 449.282 284.839)" fill="url(#paint2_linear_3819_22549)" fill-opacity="0.54"/>
<rect width="15.4529" height="52.0802" rx="7.72646" transform="matrix(-0.661359 0.750181 -0.661359 -0.750181 449.282 284.839)" fill="url(#paint3_linear_3819_22549)"/>
</g>
<g filter="url(#filter2_f_3819_22549)">
<circle cx="5.88682" cy="5.88682" r="5.88682" transform="matrix(-0.661359 0.750181 -0.661359 -0.750181 152.363 344.569)" fill="white"/>
</g>
<rect width="15.4529" height="140.195" rx="7.72646" transform="matrix(-0.661359 0.750181 -0.661359 -0.750181 154.796 345.135)" fill="url(#paint4_linear_3819_22549)" fill-opacity="0.54"/>
<rect width="15.4529" height="52.0802" rx="7.72646" transform="matrix(-0.661359 0.750181 -0.661359 -0.750181 154.796 345.135)" fill="url(#paint5_linear_3819_22549)"/>
<rect width="9.53297" height="86.4866" rx="4.76648" transform="matrix(-0.661359 0.750181 -0.661359 -0.750181 1415.24 717.844)" fill="url(#paint6_linear_3819_22549)" fill-opacity="0.54"/>
<rect width="9.53297" height="32.1285" rx="4.76648" transform="matrix(-0.661359 0.750181 -0.661359 -0.750181 1415.24 717.844)" fill="url(#paint7_linear_3819_22549)"/>
<rect width="9.53297" height="86.4866" rx="4.76648" transform="matrix(-0.661359 0.750181 -0.661359 -0.750181 1401.62 675.534)" fill="url(#paint8_linear_3819_22549)" fill-opacity="0.54"/>
<rect width="9.53297" height="32.1285" rx="4.76648" transform="matrix(-0.661359 0.750181 -0.661359 -0.750181 1401.62 675.534)" fill="url(#paint9_linear_3819_22549)"/>
<rect width="12.8159" height="116.27" rx="6.40793" transform="matrix(-0.646734 0.762826 -0.646734 -0.762826 159.496 402.377)" fill="url(#paint10_linear_3819_22549)" fill-opacity="0.54"/>
<rect width="12.8159" height="43.1927" rx="6.40793" transform="matrix(-0.646734 0.762826 -0.646734 -0.762826 159.496 402.377)" fill="url(#paint11_linear_3819_22549)"/>
<rect opacity="0.2" x="311.025" y="783.344" width="7.51885" height="155.118" rx="3.75911" transform="rotate(135 311.025 783.344)" fill="url(#paint12_linear_3819_22549)"/>
<rect opacity="0.2" x="475.038" y="138.292" width="7.51885" height="155.118" rx="3.75911" transform="rotate(135 475.038 138.292)" fill="url(#paint13_linear_3819_22549)"/>
<rect opacity="0.2" x="1102.09" y="528.325" width="7.51885" height="155.118" rx="3.75911" transform="rotate(135 1102.09 528.325)" fill="url(#paint14_linear_3819_22549)"/>
<rect opacity="0.2" x="338.771" y="845.24" width="7.51885" height="155.118" rx="3.75911" transform="rotate(135 338.771 845.24)" fill="url(#paint15_linear_3819_22549)"/>
<defs>
<filter id="filter0_f_3819_22549" x="0" y="0" width="104.953" height="117.974" filterUnits="userSpaceOnUse" color-interpolation-filters="sRGB">
<feFlood flood-opacity="0" result="BackgroundImageFix"/>
<feBlend mode="normal" in="SourceGraphic" in2="BackgroundImageFix" result="shape"/>
<feGaussianBlur stdDeviation="2" result="effect1_foregroundBlur_3819_22549"/>
</filter>
<filter id="filter1_f_3819_22549" x="345.336" y="179.063" width="104.953" height="117.975" filterUnits="userSpaceOnUse" color-interpolation-filters="sRGB">
<feFlood flood-opacity="0" result="BackgroundImageFix"/>
<feBlend mode="normal" in="SourceGraphic" in2="BackgroundImageFix" result="shape"/>
<feGaussianBlur stdDeviation="2" result="effect1_foregroundBlur_3819_22549"/>
</filter>
<filter id="filter2_f_3819_22549" x="135.07" y="334.324" width="19.0127" height="20.49" filterUnits="userSpaceOnUse" color-interpolation-filters="sRGB">
<feFlood flood-opacity="0" result="BackgroundImageFix"/>
<feBlend mode="normal" in="SourceGraphic" in2="BackgroundImageFix" result="shape"/>
<feGaussianBlur stdDeviation="2" result="effect1_foregroundBlur_3819_22549"/>
</filter>
<linearGradient id="paint0_linear_3819_22549" x1="9.28742" y1="2.93641" x2="11.9561" y2="135.21" gradientUnits="userSpaceOnUse">
<stop stop-color="white"/>
<stop offset="1" stop-color="#34FCFF" stop-opacity="0"/>
</linearGradient>
<linearGradient id="paint1_linear_3819_22549" x1="9.28742" y1="1.09083" x2="9.65584" y2="50.2457" gradientUnits="userSpaceOnUse">
<stop stop-color="white"/>
<stop offset="1" stop-color="#34FCFF" stop-opacity="0.2"/>
</linearGradient>
<linearGradient id="paint2_linear_3819_22549" x1="9.28742" y1="2.93641" x2="11.9561" y2="135.21" gradientUnits="userSpaceOnUse">
<stop stop-color="white"/>
<stop offset="1" stop-color="#34FCFF" stop-opacity="0"/>
</linearGradient>
<linearGradient id="paint3_linear_3819_22549" x1="9.28742" y1="1.09083" x2="9.65584" y2="50.2457" gradientUnits="userSpaceOnUse">
<stop stop-color="white"/>
<stop offset="1" stop-color="#34FCFF" stop-opacity="0.2"/>
</linearGradient>
<linearGradient id="paint4_linear_3819_22549" x1="9.28742" y1="2.93641" x2="11.9561" y2="135.21" gradientUnits="userSpaceOnUse">
<stop stop-color="white"/>
<stop offset="1" stop-color="#34FCFF" stop-opacity="0"/>
</linearGradient>
<linearGradient id="paint5_linear_3819_22549" x1="9.28742" y1="1.09083" x2="9.65584" y2="50.2457" gradientUnits="userSpaceOnUse">
<stop stop-color="white"/>
<stop offset="1" stop-color="#34FCFF" stop-opacity="0.2"/>
</linearGradient>
<linearGradient id="paint6_linear_3819_22549" x1="5.72945" y1="1.81149" x2="7.37579" y2="83.4115" gradientUnits="userSpaceOnUse">
<stop stop-color="white"/>
<stop offset="1" stop-color="#34FCFF" stop-opacity="0"/>
</linearGradient>
<linearGradient id="paint7_linear_3819_22549" x1="5.72945" y1="0.67294" x2="5.95673" y2="30.9968" gradientUnits="userSpaceOnUse">
<stop stop-color="white"/>
<stop offset="1" stop-color="#34FCFF" stop-opacity="0.2"/>
</linearGradient>
<linearGradient id="paint8_linear_3819_22549" x1="5.72945" y1="1.81149" x2="7.37579" y2="83.4115" gradientUnits="userSpaceOnUse">
<stop stop-color="white"/>
<stop offset="1" stop-color="#34FCFF" stop-opacity="0"/>
</linearGradient>
<linearGradient id="paint9_linear_3819_22549" x1="5.72945" y1="0.67294" x2="5.95673" y2="30.9968" gradientUnits="userSpaceOnUse">
<stop stop-color="white"/>
<stop offset="1" stop-color="#34FCFF" stop-opacity="0.2"/>
</linearGradient>
<linearGradient id="paint10_linear_3819_22549" x1="7.70251" y1="2.43531" x2="9.91581" y2="112.136" gradientUnits="userSpaceOnUse">
<stop stop-color="white"/>
<stop offset="1" stop-color="#34FCFF" stop-opacity="0"/>
</linearGradient>
<linearGradient id="paint11_linear_3819_22549" x1="7.70251" y1="0.904682" x2="8.00806" y2="41.6712" gradientUnits="userSpaceOnUse">
<stop stop-color="white"/>
<stop offset="1" stop-color="#34FCFF" stop-opacity="0.2"/>
</linearGradient>
<linearGradient id="paint12_linear_3819_22549" x1="315.543" y1="786.593" x2="322.247" y2="932.698" gradientUnits="userSpaceOnUse">
<stop stop-color="white"/>
<stop offset="1" stop-color="#34FCFF" stop-opacity="0.2"/>
</linearGradient>
<linearGradient id="paint13_linear_3819_22549" x1="479.557" y1="141.541" x2="486.26" y2="287.646" gradientUnits="userSpaceOnUse">
<stop stop-color="white"/>
<stop offset="1" stop-color="#34FCFF" stop-opacity="0.2"/>
</linearGradient>
<linearGradient id="paint14_linear_3819_22549" x1="1106.61" y1="531.574" x2="1113.31" y2="677.679" gradientUnits="userSpaceOnUse">
<stop stop-color="white"/>
<stop offset="1" stop-color="#34FCFF" stop-opacity="0.2"/>
</linearGradient>
<linearGradient id="paint15_linear_3819_22549" x1="343.29" y1="848.489" x2="349.993" y2="994.594" gradientUnits="userSpaceOnUse">
<stop stop-color="white"/>
<stop offset="1" stop-color="#34FCFF" stop-opacity="0.2"/>
</linearGradient>
</defs>
</svg>
