<svg width="343" height="469" viewBox="0 0 343 469" fill="none" xmlns="http://www.w3.org/2000/svg">
<g opacity="0.8" filter="url(#filter0_d_423_321)">
<path fill-rule="evenodd" clip-rule="evenodd" d="M215.187 216.07H223.483V71.155C223.483 55.6033 236.055 43.0052 251.554 43.0052C267.052 43.0052 279.624 55.6034 279.624 71.155V216.07H287.926V119.313C287.926 106.141 298.575 95.4708 311.701 95.4708C324.827 95.4708 335.476 106.141 335.476 119.313V324.963C335.476 400.111 274.718 461.021 199.78 461.021H195.714C195.031 461.021 194.306 461.02 193.55 461.019C191.938 461.017 190.186 461.015 188.405 461.021C137.411 461.172 100.875 439.551 76.0981 410.849C51.2733 382.091 38.2468 346.204 34.4734 317.993C30.3243 286.974 18.4209 251.434 7.82227 224.811C1.42041 208.731 8.50327 190.071 24.2477 183.385C40.1758 176.621 58.492 184.794 64.1379 201.198L90.7166 278.425L94.6077 277.774V65.7008C94.6077 50.1492 107.18 37.5511 122.679 37.5511C138.177 37.5511 150.749 50.1492 150.749 65.7008V216.07H159.045V33.1712C159.045 17.6196 171.618 5.02148 187.116 5.02148C202.614 5.02148 215.187 17.6196 215.187 33.1712V216.07ZM92.6077 65.7008C92.6077 49.0496 106.071 35.5511 122.679 35.5511C139.286 35.5511 152.749 49.0496 152.749 65.7008V214.07H157.045V33.1712C157.045 16.52 170.508 3.02148 187.116 3.02148C203.724 3.02148 217.187 16.52 217.187 33.1712V214.07H221.483V71.155C221.483 54.5037 234.946 41.0052 251.554 41.0052C268.161 41.0052 281.624 54.5037 281.624 71.155V214.07H285.926V119.313C285.926 105.041 297.466 93.4708 311.701 93.4708C325.936 93.4708 337.476 105.041 337.476 119.313V324.963C337.476 401.21 275.827 463.021 199.78 463.021H195.714C195.027 463.021 194.3 463.02 193.543 463.019C191.933 463.017 190.188 463.015 188.411 463.021C85.1322 463.326 40.1249 375.329 32.4911 318.258C28.3745 287.482 16.5418 252.121 5.96408 225.551C-0.808167 208.54 6.64429 188.688 23.466 181.544C40.4653 174.325 60.0071 183.05 66.029 200.547L92.6077 277.774V65.7008Z" fill="white"/>
</g>
<defs>
<filter id="filter0_d_423_321" x="0.476089" y="0.0214844" width="342" height="468" filterUnits="userSpaceOnUse" color-interpolation-filters="sRGB">
<feFlood flood-opacity="0" result="BackgroundImageFix"/>
<feColorMatrix in="SourceAlpha" type="matrix" values="0 0 0 0 0 0 0 0 0 0 0 0 0 0 0 0 0 0 127 0" result="hardAlpha"/>
<feOffset dx="1" dy="1"/>
<feGaussianBlur stdDeviation="2"/>
<feComposite in2="hardAlpha" operator="out"/>
<feColorMatrix type="matrix" values="0 0 0 0 0 0 0 0 0 0 0 0 0 0 0 0 0 0 0.2 0"/>
<feBlend mode="normal" in2="BackgroundImageFix" result="effect1_dropShadow_423_321"/>
<feBlend mode="normal" in="SourceGraphic" in2="effect1_dropShadow_423_321" result="shape"/>
</filter>
</defs>
</svg>
