<svg width="350" height="764" viewBox="0 0 350 764" fill="none" xmlns="http://www.w3.org/2000/svg">
<g opacity="0.6" filter="url(#filter0_f_2296_7526)">
<path d="M174.923 -58L185.56 280.918L314.955 -27.7861L205.214 289.748L433.669 58.256L220.257 306.065L512.991 187.027L228.398 327.385L540.845 338.923L228.398 350.461L512.991 490.818L220.257 371.78L433.669 619.589L205.214 388.097L314.955 705.631L185.56 396.928L174.923 735.845L164.286 396.928L34.8902 705.631L144.632 388.097L-83.8237 619.589L129.589 371.78L-163.146 490.818L121.448 350.461L-191 338.923L121.448 327.385L-163.146 187.027L129.589 306.065L-83.8237 58.256L144.632 289.748L34.8902 -27.7861L164.286 280.918L174.923 -58Z" fill="url(#paint0_radial_2296_7526)" fill-opacity="0.5"/>
</g>
<defs>
<filter id="filter0_f_2296_7526" x="-219" y="-86" width="787.844" height="849.846" filterUnits="userSpaceOnUse" color-interpolation-filters="sRGB">
<feFlood flood-opacity="0" result="BackgroundImageFix"/>
<feBlend mode="normal" in="SourceGraphic" in2="BackgroundImageFix" result="shape"/>
<feGaussianBlur stdDeviation="14" result="effect1_foregroundBlur_2296_7526"/>
</filter>
<radialGradient id="paint0_radial_2296_7526" cx="0" cy="0" r="1" gradientUnits="userSpaceOnUse" gradientTransform="translate(174.923 338.923) rotate(90) scale(396.923 365.923)">
<stop stop-color="#DADADA"/>
<stop offset="0.523958" stop-color="#6B89FB"/>
<stop offset="1" stop-opacity="0"/>
</radialGradient>
</defs>
</svg>
