<svg width="550" height="550" viewBox="0 0 550 550" fill="none" xmlns="http://www.w3.org/2000/svg">
<g opacity="0.6" filter="url(#filter0_f_572_18964)">
<path d="M275 28L281.455 217.599C281.634 222.879 288.816 224.308 291.003 219.498L369.523 46.8018L302.93 224.438C301.075 229.386 307.164 233.454 311.025 229.847L449.655 100.345L320.153 238.975C316.546 242.836 320.614 248.925 325.562 247.07L503.198 180.477L330.502 258.997C325.692 261.184 327.121 268.366 332.401 268.545L522 275L332.401 281.455C327.121 281.634 325.692 288.816 330.502 291.003L503.198 369.523L325.562 302.93C320.614 301.075 316.546 307.164 320.153 311.025L449.655 449.655L311.025 320.153C307.164 316.546 301.075 320.614 302.93 325.562L369.523 503.198L291.003 330.502C288.816 325.692 281.634 327.121 281.455 332.401L275 522L268.545 332.401C268.366 327.121 261.184 325.692 258.997 330.502L180.477 503.198L247.07 325.562C248.925 320.614 242.836 316.546 238.975 320.153L100.345 449.655L229.847 311.025C233.454 307.164 229.386 301.075 224.438 302.93L46.8018 369.523L219.498 291.003C224.308 288.816 222.879 281.634 217.599 281.455L28 275L217.599 268.545C222.879 268.366 224.308 261.184 219.498 258.997L46.8018 180.477L224.438 247.07C229.386 248.925 233.454 242.836 229.847 238.975L100.345 100.345L238.975 229.847C242.836 233.454 248.925 229.386 247.07 224.438L180.477 46.8018L258.997 219.498C261.184 224.308 268.366 222.879 268.545 217.599L275 28Z" fill="url(#paint0_radial_572_18964)" fill-opacity="0.5"/>
</g>
<defs>
<filter id="filter0_f_572_18964" x="0" y="0" width="550" height="550" filterUnits="userSpaceOnUse" color-interpolation-filters="sRGB">
<feFlood flood-opacity="0" result="BackgroundImageFix"/>
<feBlend mode="normal" in="SourceGraphic" in2="BackgroundImageFix" result="shape"/>
<feGaussianBlur stdDeviation="14" result="effect1_foregroundBlur_572_18964"/>
</filter>
<radialGradient id="paint0_radial_572_18964" cx="0" cy="0" r="1" gradientUnits="userSpaceOnUse" gradientTransform="translate(275 275) rotate(90) scale(247)">
<stop stop-color="#DADADA"/>
<stop offset="0.523958" stop-color="#6B89FB"/>
<stop offset="1" stop-opacity="0"/>
</radialGradient>
</defs>
</svg>
