<svg width="36" height="36" viewBox="0 0 36 36" fill="none" xmlns="http://www.w3.org/2000/svg">
<path d="M18 3L21.0179 10.8466C21.441 11.9465 21.6525 12.4964 21.9814 12.959C22.2729 13.3689 22.6311 13.7271 23.041 14.0186C23.5036 14.3475 24.0535 14.559 25.1534 14.9821L33 18L25.1534 21.0179C24.0535 21.441 23.5036 21.6525 23.041 21.9814C22.6311 22.2729 22.2729 22.6311 21.9814 23.041C21.6525 23.5036 21.441 24.0535 21.0179 25.1534L18 33L14.9821 25.1534C14.559 24.0535 14.3475 23.5036 14.0186 23.041C13.7271 22.6311 13.3689 22.2729 12.959 21.9814C12.4964 21.6525 11.9465 21.441 10.8466 21.0179L3 18L10.8466 14.9821C11.9465 14.559 12.4964 14.3475 12.959 14.0186C13.3689 13.7271 13.7271 13.3689 14.0186 12.959C14.3475 12.4964 14.559 11.9465 14.9821 10.8466L18 3Z" fill="#FCC1B9" stroke="#F97B68" stroke-width="3" stroke-linecap="round" stroke-linejoin="round"/>
</svg>
