<svg width="36" height="36" viewBox="0 0 36 36" fill="none" xmlns="http://www.w3.org/2000/svg">
<path d="M12 21C12 21 14.25 24 18 24C21.75 24 24 21 24 21M25.5 13.86C24.9075 14.5875 24.0975 15 23.25 15C22.4025 15 21.615 14.5875 21 13.86M15 13.86C14.4075 14.5875 13.5975 15 12.75 15C11.9025 15 11.115 14.5875 10.5 13.86M33 18C33 26.2843 26.2843 33 18 33C9.71573 33 3 26.2843 3 18C3 9.71573 9.71573 3 18 3C26.2843 3 33 9.71573 33 18Z" stroke="#F97B68" stroke-width="3" stroke-linecap="round" stroke-linejoin="round"/>
</svg>
