<svg width="25" height="25" viewBox="0 0 25 25" fill="none" xmlns="http://www.w3.org/2000/svg">
<path d="M7.4 11.9444V14.7222M7.4 11.9444V5.27778C7.4 4.3573 8.16112 3.61111 9.1 3.61111C10.0389 3.61111 10.8 4.3573 10.8 5.27778M7.4 11.9444C7.4 11.024 6.63888 10.2778 5.7 10.2778C4.76112 10.2778 4 11.024 4 11.9444V14.1667C4 18.769 7.80558 22.5 12.5 22.5C17.1944 22.5 21 18.769 21 14.1667V8.61111C21 7.69064 20.2389 6.94444 19.3 6.94444C18.3611 6.94444 17.6 7.69064 17.6 8.61111M10.8 5.27778V11.3889M10.8 5.27778V4.16667C10.8 3.24619 11.5611 2.5 12.5 2.5C13.4389 2.5 14.2 3.24619 14.2 4.16667V5.27778M14.2 5.27778V11.3889M14.2 5.27778C14.2 4.3573 14.9611 3.61111 15.9 3.61111C16.8389 3.61111 17.6 4.3573 17.6 5.27778V8.61111M17.6 8.61111V11.3889" stroke="#F97B68" stroke-width="2" stroke-linecap="round" stroke-linejoin="round"/>
</svg>
