<svg width="36" height="36" viewBox="0 0 36 36" fill="none" xmlns="http://www.w3.org/2000/svg">
<path d="M18.5367 5.51769C18.3399 5.41931 18.2415 5.37011 18.1383 5.35075C18.0469 5.3336 17.9531 5.3336 17.8617 5.35075C17.7585 5.37011 17.6601 5.41931 17.4633 5.51769L3 12.7494L17.4633 19.981C17.6601 20.0794 17.7585 20.1286 17.8617 20.148C17.9531 20.1651 18.0469 20.1651 18.1383 20.148C18.2415 20.1286 18.3399 20.0794 18.5367 19.981L33 12.7494L18.5367 5.51769Z" fill="#FCC1B9"/>
<path d="M25.5 21.7494V17.241C25.5 16.9718 25.5 16.8372 25.459 16.7183C25.4228 16.6132 25.3636 16.5175 25.2858 16.4381C25.1979 16.3483 25.0775 16.2881 24.8367 16.1677L18 12.7494M6 14.2494V24.4593C6 25.0172 6 25.2961 6.08703 25.5403C6.16396 25.7562 6.28935 25.9516 6.45357 26.1115C6.63932 26.2924 6.89291 26.4086 7.40003 26.641L17 31.041C17.3679 31.2096 17.5518 31.2939 17.7434 31.3272C17.9132 31.3567 18.0868 31.3567 18.2566 31.3272C18.4482 31.2939 18.6321 31.2096 19 31.041L28.6 26.641C29.1071 26.4086 29.3607 26.2924 29.5464 26.1115C29.7106 25.9516 29.836 25.7562 29.913 25.5403C30 25.2961 30 25.0172 30 24.4593V14.2494M3 12.7494L17.4633 5.51769C17.6601 5.41931 17.7585 5.37011 17.8617 5.35075C17.9531 5.3336 18.0469 5.3336 18.1383 5.35075C18.2415 5.37011 18.3399 5.41931 18.5367 5.51769L33 12.7494L18.5367 19.981C18.3399 20.0794 18.2415 20.1286 18.1383 20.148C18.0469 20.1651 17.9531 20.1651 17.8617 20.148C17.7585 20.1286 17.6601 20.0794 17.4633 19.981L3 12.7494Z" stroke="#F97B68" stroke-width="3" stroke-linecap="round" stroke-linejoin="round"/>
</svg>
