<svg width="25" height="24" viewBox="0 0 25 24" fill="none" xmlns="http://www.w3.org/2000/svg">
<path d="M14.8245 2H9.0689C8.88943 2 8.79969 2 8.72046 2.02733C8.6504 2.05149 8.58658 2.09093 8.53363 2.14279C8.47376 2.20143 8.43363 2.2817 8.35336 2.44223L4.15336 10.8422C3.96168 11.2256 3.86584 11.4173 3.88886 11.5731C3.90896 11.7091 3.98422 11.8309 4.09692 11.9097C4.22599 12 4.44029 12 4.8689 12H11.0745L8.07448 22L20.2676 9.35531C20.6789 8.9287 20.8846 8.7154 20.8967 8.53288C20.9071 8.37446 20.8417 8.22049 20.7204 8.11803C20.5807 8 20.2843 8 19.6917 8H12.5745L14.8245 2Z" fill="#FCC1B9" stroke="#F97B68" stroke-width="2" stroke-linecap="round" stroke-linejoin="round"/>
</svg>
