<svg width="36" height="36" viewBox="0 0 36 36" fill="none" xmlns="http://www.w3.org/2000/svg">
<path fill-rule="evenodd" clip-rule="evenodd" d="M24.4458 17.6249C23.8127 14.223 20.918 11.735 17.2735 12.4112C13.6289 13.0875 11.2723 16.3756 11.765 19.9485C12.1609 22.8191 14.3459 29.5541 15.1896 32.091C15.3047 32.4372 15.3623 32.6103 15.4763 32.731C15.5756 32.8361 15.7076 32.9123 15.8483 32.9458C16.0098 32.9841 16.1885 32.9474 16.5459 32.874C19.1648 32.3363 26.09 30.861 28.7739 29.7686C32.1144 28.4088 33.8384 24.7262 32.5471 21.2295C31.2559 17.7328 27.7085 16.4723 24.4458 17.6249Z" fill="#FCC1B9"/>
<path d="M23.3183 14.8881C23.8792 13.8915 24.3469 12.9923 24.6354 12.3078C26.036 8.9842 24.651 5.16115 21.2654 3.60168C17.8798 2.04222 14.4801 3.65924 12.9881 6.78139C10.1349 4.82355 6.32877 5.11108 4.22983 8.16635C2.13089 11.2216 2.78963 15.213 5.66443 17.3911C6.96915 18.3795 9.54954 19.8363 11.9789 21.1327M24.4458 17.6249C23.8127 14.223 20.918 11.735 17.2735 12.4112C13.6289 13.0875 11.2723 16.3756 11.765 19.9485C12.1609 22.8191 14.3459 29.5541 15.1896 32.091C15.3047 32.4372 15.3623 32.6103 15.4763 32.731C15.5756 32.8361 15.7076 32.9123 15.8483 32.9458C16.0098 32.9841 16.1885 32.9474 16.5459 32.874C19.1648 32.3363 26.09 30.861 28.7739 29.7686C32.1144 28.4088 33.8384 24.7262 32.5471 21.2295C31.2559 17.7328 27.7085 16.4723 24.4458 17.6249Z" stroke="#F97B68" stroke-width="3" stroke-linecap="round" stroke-linejoin="round"/>
</svg>
