<svg width="24" height="25" viewBox="0 0 24 25" fill="none" xmlns="http://www.w3.org/2000/svg">
<path d="M12 2.5L10.6985 7.70599C10.4445 8.72185 10.3176 9.22978 10.0531 9.64309C9.81915 10.0087 9.50868 10.3192 9.14309 10.5531C8.72978 10.8176 8.22185 10.9445 7.20599 11.1985L2 12.5L7.20599 13.8015C8.22185 14.0555 8.72978 14.1824 9.14309 14.4469C9.50868 14.6808 9.81915 14.9913 10.0531 15.3569C10.3176 15.7702 10.4445 16.2782 10.6985 17.294L12 22.5L13.3015 17.294C13.5555 16.2782 13.6824 15.7702 13.9469 15.3569C14.1808 14.9913 14.4913 14.6808 14.8569 14.4469C15.2702 14.1824 15.7782 14.0555 16.794 13.8015L22 12.5L16.794 11.1985C15.7782 10.9445 15.2702 10.8176 14.8569 10.5531C14.4913 10.3192 14.1808 10.0087 13.9469 9.64309C13.6824 9.22978 13.5555 8.72185 13.3015 7.70599L12 2.5Z" stroke="#EA6653" stroke-width="2" stroke-linecap="round" stroke-linejoin="round"/>
</svg>
