<svg width="37" height="37" viewBox="0 0 37 37" fill="none" xmlns="http://www.w3.org/2000/svg">
<path d="M14.301 29.5L4.6103 21.5C4.08179 18 9.5818 11.5 14.301 11.5C17.5818 11.5 20.2485 6.16667 21.5818 3.5L31.5818 11.5C31.5818 15.5 27.5818 21.5 23.5818 21.5C19.5818 21.5 15.9677 26.6667 14.301 29.5Z" fill="#FCC1B9" stroke="#F97B68" stroke-width="2" stroke-linejoin="round"/>
<path d="M30.575 14.2236L33.075 16.9998C33.075 19.9998 28.5749 24.4998 24.5749 24.4998C20.5749 24.4998 16.9745 30.6664 15.3078 33.4998L5.07498 25.4998C4.95767 24.7229 5.67955 23.7982 6.08181 22.8296" stroke="#F97B68" stroke-width="2" stroke-linejoin="round"/>
<ellipse cx="18.5818" cy="16.5" rx="4" ry="3" stroke="#F97B68" stroke-width="2"/>
</svg>
