<svg width="18" height="20" viewBox="0 0 18 20" fill="none" xmlns="http://www.w3.org/2000/svg">
<g clip-path="url(#clip0_3717_23069)">
<path d="M4.37491 4.27715L13.6108 4.26455L15.1363 1.24093C15.3498 0.816779 15.1505 0.346438 14.7498 0.226753C12.4963 -0.264585 10.2936 0.0104803 8.35932 1.34801C6.8705 0.00628079 4.94237 -0.300281 3.09356 0.287646C2.7844 0.459824 2.73152 0.783184 2.78033 1.15274L4.37491 4.27925V4.27715Z" fill="url(#paint0_radial_3717_23069)"/>
<path d="M17.3878 12.842L13.6231 5.72388L4.36475 5.73018L0.60814 12.8588C-0.199318 14.3895 -0.225759 16.1449 0.663055 17.6966C1.39729 18.9774 2.83119 19.9979 4.4278 19.9979H13.4949C15.1424 19.9937 16.5925 18.9942 17.341 17.6819C18.2258 16.1344 18.1973 14.3706 17.3878 12.842Z" fill="url(#paint1_radial_3717_23069)"/>
<path d="M11.0664 12.0567C11.042 11.6221 10.5946 11.4142 10.2183 11.4163C9.55726 11.4205 8.94913 11.4583 8.31862 11.4058L8.31048 10.6982C9.04065 10.7507 9.67523 10.7108 10.3484 10.7213C10.7552 10.7276 11.0623 10.4231 11.0827 10.0368C11.101 9.684 10.8529 9.33965 10.4746 9.29765C10.204 9.26616 9.95794 9.29345 9.6915 9.29765C9.67523 9.04568 9.72811 8.84621 9.65489 8.57954C9.20743 8.55645 8.78642 8.54595 8.35116 8.58794C8.2576 8.83991 8.31048 9.04988 8.30438 9.29765C8.01353 9.29765 7.74913 9.25146 7.45218 9.31235C7.18777 9.36484 6.92133 9.63361 6.91726 9.93177C6.90709 10.7234 6.87862 11.4709 6.9315 12.2625C6.95387 12.5795 7.2854 12.8714 7.58031 12.8735L9.66099 12.8882C9.69353 13.1129 9.6854 13.327 9.67726 13.5601L7.59658 13.5769C7.23048 13.579 6.97014 13.8835 6.92133 14.2152C6.87048 14.5575 7.12269 14.8893 7.47048 14.9963C7.73896 15.0782 8.01964 14.9711 8.29218 15.0404L8.34303 15.7249C8.79455 15.7396 9.2115 15.7564 9.68336 15.7124L9.71387 15.0362C9.90709 15.0005 10.0779 15.0173 10.2976 15.0236C10.6474 15.032 11.0705 14.7822 11.0807 14.3748C11.101 13.5937 11.1152 12.8315 11.0725 12.0546L11.0664 12.0567Z" fill="#F5F9FF"/>
</g>
<defs>
<radialGradient id="paint0_radial_3717_23069" cx="0" cy="0" r="1" gradientTransform="matrix(1.57447 -3.92315 16.6193 0.422514 8.90491 3.13004)" gradientUnits="userSpaceOnUse">
<stop stop-color="#F97B68"/>
<stop offset="0.6" stop-color="#D1090C"/>
<stop offset="1" stop-color="#FF5457"/>
</radialGradient>
<radialGradient id="paint1_radial_3717_23069" cx="0" cy="0" r="1" gradientTransform="matrix(2.27479 -13.0845 24.0115 1.40917 8.87113 16.1651)" gradientUnits="userSpaceOnUse">
<stop stop-color="#F97B68"/>
<stop offset="0.6" stop-color="#D1090C"/>
<stop offset="1" stop-color="#FF5457"/>
</radialGradient>
<clipPath id="clip0_3717_23069">
<rect width="18" height="20" fill="white"/>
</clipPath>
</defs>
</svg>
