<svg width="25" height="20" viewBox="0 0 25 20" fill="none" xmlns="http://www.w3.org/2000/svg">
<path d="M1.16064 1.99762V7.99762H7.16064" stroke="#65605C" stroke-width="2" stroke-linecap="round" stroke-linejoin="round"/>
<path d="M23.1606 17.9976V11.9976H17.1606" stroke="#65605C" stroke-width="2" stroke-linecap="round" stroke-linejoin="round"/>
<path d="M20.6506 6.99763C20.1435 5.56442 19.2815 4.28304 18.1452 3.27305C17.0088 2.26307 15.6352 1.5574 14.1524 1.22189C12.6695 0.886385 11.1259 0.931975 9.66545 1.35441C8.20502 1.77684 6.87539 2.56235 5.80064 3.63763L1.16064 7.99763M23.1606 11.9976L18.5206 16.3576C17.4459 17.4329 16.1163 18.2184 14.6558 18.6409C13.1954 19.0633 11.6518 19.1089 10.1689 18.7734C8.68611 18.4379 7.31244 17.7322 6.17611 16.7222C5.03978 15.7122 4.17781 14.4308 3.67064 12.9976" stroke="#65605C" stroke-width="2" stroke-linecap="round" stroke-linejoin="round"/>
</svg>

