<svg width="53" height="66" viewBox="0 0 53 66" fill="none" xmlns="http://www.w3.org/2000/svg">
<path d="M27.5528 28.2298C26.59 28.5485 25.5063 28.7276 24.3604 28.7276C22.8105 28.7276 21.3744 28.4 20.1971 27.8422C20.9744 29.1674 22.3877 30.0536 24.0022 30.0536C25.4537 30.0536 26.7425 29.3374 27.5528 28.2298Z" fill="#A4ABBB"/>
<path fill-rule="evenodd" clip-rule="evenodd" d="M53 33C53 51.2254 43.8612 66 32.5878 66V39.5558H38.9622L32.5878 0C43.8612 0 53 14.7746 53 33ZM44.9877 28.7276C46.1337 28.7276 47.2174 28.5485 48.1803 28.2297C47.37 29.3373 46.0812 30.0536 44.6296 30.0536C43.0152 30.0536 41.6019 29.1675 40.8246 27.8423C42.0019 28.4 43.4379 28.7276 44.9877 28.7276Z" fill="#A4ABBB"/>
<path d="M0 36.4068C0 40.5947 2.29635 43.9897 5.12903 43.9897V28.8239C2.29635 28.8239 0 32.2189 0 36.4068Z" fill="#A4ABBB"/>
</svg>
