<svg width="20" height="20" viewBox="0 0 20 20" fill="none" xmlns="http://www.w3.org/2000/svg">
<path fill-rule="evenodd" clip-rule="evenodd" d="M2.83354 10C1.26861 10 0 8.98246 0 7.72727C0 6.47208 1.26861 5.45455 2.83354 5.45455C2.87309 5.45455 2.91243 5.4552 2.95157 5.45648V5.45455C6.34223 5.45455 9.09091 10 9.09091 10C9.09091 10 6.34223 14.5455 2.95157 14.5455V14.5435C2.91243 14.5448 2.87309 14.5455 2.83354 14.5455C1.26861 14.5455 0 13.5279 0 12.2727C0 11.0175 1.26861 10 2.83354 10ZM2.83354 10C2.87309 10 2.91246 10.0007 2.9516 10.0019V9.99806C2.91246 9.99935 2.87309 10 2.83354 10Z" fill="#AFDCEA"/>
<path fill-rule="evenodd" clip-rule="evenodd" d="M10 17.1665C10 18.7314 8.98246 20 7.72727 20C6.47208 20 5.45455 18.7314 5.45455 17.1665C5.45455 17.1269 5.4552 17.0876 5.45648 17.0484H5.45455C5.45455 13.6578 10 10.9091 10 10.9091C10 10.9091 14.5455 13.6578 14.5455 17.0484H14.5435C14.5448 17.0876 14.5455 17.1269 14.5455 17.1665C14.5455 18.7314 13.5279 20 12.2727 20C11.0175 20 10 18.7314 10 17.1665ZM10 17.1665C10 17.1269 10.0007 17.0875 10.0019 17.0484H9.99806C9.99935 17.0875 10 17.1269 10 17.1665Z" fill="#AFDCEA"/>
<path fill-rule="evenodd" clip-rule="evenodd" d="M17.1665 10C18.7314 10 20 11.0175 20 12.2727C20 13.5279 18.7314 14.5455 17.1665 14.5455C17.1269 14.5455 17.0876 14.5448 17.0484 14.5435V14.5455C13.6578 14.5455 10.9091 10 10.9091 10C10.9091 10 13.6578 5.45455 17.0484 5.45455V5.45648C17.0876 5.4552 17.1269 5.45455 17.1665 5.45455C18.7314 5.45455 20 6.47208 20 7.72727C20 8.98246 18.7314 10 17.1665 10ZM17.1665 10C17.1269 10 17.0875 9.99935 17.0484 9.99806V10.0019C17.0875 10.0007 17.1269 10 17.1665 10Z" fill="#AFDCEA"/>
<path fill-rule="evenodd" clip-rule="evenodd" d="M10 2.83354C10 1.26861 11.0175 0 12.2727 0C13.5279 0 14.5455 1.26861 14.5455 2.83354C14.5455 2.87309 14.5448 2.91243 14.5435 2.95157H14.5455C14.5455 6.34223 10 9.09091 10 9.09091C10 9.09091 5.45455 6.34223 5.45455 2.95157H5.45648C5.4552 2.91243 5.45455 2.87309 5.45455 2.83354C5.45455 1.26861 6.47208 0 7.72727 0C8.98246 0 10 1.26861 10 2.83354ZM10 2.83354C10 2.87309 9.99935 2.91246 9.99806 2.9516H10.0019C10.0007 2.91246 10 2.87309 10 2.83354Z" fill="#AFDCEA"/>
</svg>
