<svg width="25" height="24" viewBox="0 0 25 24" fill="none" xmlns="http://www.w3.org/2000/svg">
<path d="M19.8394 3H5.83936C4.73479 3 3.83936 3.89543 3.83936 5V19C3.83936 20.1046 4.73479 21 5.83936 21H19.8394C20.9439 21 21.8394 20.1046 21.8394 19V5C21.8394 3.89543 20.9439 3 19.8394 3Z" stroke="#FFFFFF" stroke-width="2" stroke-linecap="round" stroke-linejoin="round"/>
<path d="M9.33936 10C10.1678 10 10.8394 9.32843 10.8394 8.5C10.8394 7.67157 10.1678 7 9.33936 7C8.51093 7 7.83936 7.67157 7.83936 8.5C7.83936 9.32843 8.51093 10 9.33936 10Z" stroke="#FFFFFF" stroke-width="2" stroke-linecap="round" stroke-linejoin="round"/>
<path d="M21.8394 15L16.8394 10L5.83936 21" stroke="#FFFFFF" stroke-width="2" stroke-linecap="round" stroke-linejoin="round"/>
</svg>

