<svg width="28" height="28" viewBox="0 0 28 28" fill="none" xmlns="http://www.w3.org/2000/svg">
<ellipse cx="12.8333" cy="13.4166" rx="9.33333" ry="11.0833" fill="#95A3FF"/>
<path fill-rule="evenodd" clip-rule="evenodd" d="M10.2083 14.5834C10.6915 14.5834 11.0833 13.9304 11.0833 13.125C11.0833 12.3196 10.6915 11.6667 10.2083 11.6667C9.725 11.6667 9.33325 12.3196 9.33325 13.125C9.33325 13.9304 9.725 14.5834 10.2083 14.5834ZM15.4583 14.5834C15.9415 14.5834 16.3333 13.9304 16.3333 13.125C16.3333 12.3196 15.9415 11.6667 15.4583 11.6667C14.975 11.6667 14.5833 12.3196 14.5833 13.125C14.5833 13.9304 14.975 14.5834 15.4583 14.5834Z" fill="#313866"/>
<path fill-rule="evenodd" clip-rule="evenodd" d="M19.6667 24.1667C21.5997 24.1667 23.1667 22.5997 23.1667 20.6667C23.1667 18.7337 21.5997 17.1667 19.6667 17.1667C17.7337 17.1667 16.1667 18.7337 16.1667 20.6667C16.1667 22.5997 17.7337 24.1667 19.6667 24.1667ZM19.6667 25.3333C22.244 25.3333 24.3333 23.244 24.3333 20.6667C24.3333 18.0893 22.244 16 19.6667 16C17.0893 16 15 18.0893 15 20.6667C15 23.244 17.0893 25.3333 19.6667 25.3333Z" fill="#313866"/>
<mask id="mask0_674_319" style="mask-type:alpha" maskUnits="userSpaceOnUse" x="3" y="2" width="20" height="23">
<path d="M22.1667 13.4166C22.1667 19.5378 17.988 24.5 12.8333 24.5C7.67868 24.5 3.5 19.5378 3.5 13.4166C3.5 7.29549 7.67868 2.33331 12.8333 2.33331C17.988 2.33331 22.1667 7.29549 22.1667 13.4166Z" fill="#AFDCEA"/>
</mask>
<g mask="url(#mask0_674_319)">
<path d="M13.4166 5.58837C12.0956 9.138 8.67637 11.6666 4.66658 11.6666C-0.488072 11.6666 -4.66675 7.48793 -4.66675 2.33327C-4.66675 -2.82139 -0.488072 -7.00006 4.66658 -7.00006C8.67637 -7.00006 12.0956 -4.47146 13.4166 -0.92183C14.7376 -4.47146 18.1568 -7.00006 22.1666 -7.00006C27.3213 -7.00006 31.4999 -2.82139 31.4999 2.33327C31.4999 7.48793 27.3213 11.6666 22.1666 11.6666C18.1568 11.6666 14.7376 9.138 13.4166 5.58837Z" fill="#495499"/>
</g>
<path fill-rule="evenodd" clip-rule="evenodd" d="M23.9209 26.3292L22.1709 24.5792L22.9959 23.7542L24.7459 25.5042L23.9209 26.3292Z" fill="#313866"/>
</svg>
