<svg width="28" height="28" viewBox="0 0 28 28" fill="none" xmlns="http://www.w3.org/2000/svg">
<path fill-rule="evenodd" clip-rule="evenodd" d="M14 6.83354C14 5.26861 15.0175 4 16.2727 4C17.5279 4 18.5455 5.26861 18.5455 6.83354C18.5455 6.87309 18.5448 6.91243 18.5435 6.95157H18.5455C18.5455 10.3422 14 13.0909 14 13.0909C14 13.0909 9.45455 10.3422 9.45455 6.95157H9.45648C9.4552 6.91243 9.45455 6.87309 9.45455 6.83354C9.45455 5.26861 10.4721 4 11.7273 4C12.9825 4 14 5.26861 14 6.83354ZM14 6.83354C14 6.87309 13.9994 6.91246 13.9981 6.9516H14.0019C14.0007 6.91246 14 6.87309 14 6.83354Z" fill="#95A3FF"/>
<path fill-rule="evenodd" clip-rule="evenodd" d="M6.83354 14C5.26861 14 4 12.9825 4 11.7273C4 10.4721 5.26861 9.45455 6.83354 9.45455C6.87309 9.45455 6.91243 9.4552 6.95157 9.45648V9.45455C10.3422 9.45455 13.0909 14 13.0909 14C13.0909 14 10.3422 18.5455 6.95157 18.5455V18.5435C6.91243 18.5448 6.87309 18.5455 6.83354 18.5455C5.26861 18.5455 4 17.5279 4 16.2727C4 15.0175 5.26861 14 6.83354 14ZM6.83354 14C6.87309 14 6.91246 14.0007 6.9516 14.0019V13.9981C6.91246 13.9993 6.87309 14 6.83354 14Z" fill="#95A3FF"/>
<path fill-rule="evenodd" clip-rule="evenodd" d="M14 21.1665C14 22.7314 12.9825 24 11.7273 24C10.4721 24 9.45455 22.7314 9.45455 21.1665C9.45455 21.1269 9.4552 21.0876 9.45648 21.0484H9.45455C9.45455 17.6578 14 14.9091 14 14.9091C14 14.9091 18.5455 17.6578 18.5455 21.0484H18.5435C18.5448 21.0876 18.5455 21.1269 18.5455 21.1665C18.5455 22.7314 17.5279 24 16.2727 24C15.0175 24 14 22.7314 14 21.1665ZM14 21.1665C14 21.1269 14.0007 21.0875 14.0019 21.0484H13.9981C13.9994 21.0875 14 21.1269 14 21.1665Z" fill="#95A3FF"/>
<path fill-rule="evenodd" clip-rule="evenodd" d="M21.1665 14C22.7314 14 24 15.0175 24 16.2727C24 17.5279 22.7314 18.5455 21.1665 18.5455C21.1269 18.5455 21.0876 18.5448 21.0484 18.5435V18.5455C17.6578 18.5455 14.9091 14 14.9091 14C14.9091 14 17.6578 9.45455 21.0484 9.45455V9.45648C21.0876 9.4552 21.1269 9.45455 21.1665 9.45455C22.7314 9.45455 24 10.4721 24 11.7273C24 12.9825 22.7314 14 21.1665 14ZM21.1665 14C21.1269 14 21.0875 13.9993 21.0484 13.9981V14.0019C21.0875 14.0007 21.1269 14 21.1665 14Z" fill="#95A3FF"/>
</svg>
