<svg width="28" height="28" viewBox="0 0 28 28" fill="none" xmlns="http://www.w3.org/2000/svg">
<rect x="4.66675" y="3.5" width="14" height="19.8333" rx="1.16667" fill="#95A3FF"/>
<path d="M7 3.49998C7 2.85565 7.52233 2.33331 8.16667 2.33331H15.1667C15.811 2.33331 16.3333 2.85565 16.3333 3.49998V4.66665C16.3333 5.31098 15.811 5.83331 15.1667 5.83331H8.16667C7.52233 5.83331 7 5.31098 7 4.66665V3.49998Z" fill="#313866"/>
<rect x="7" y="9.33331" width="9.33333" height="1.16667" fill="#313866"/>
<rect x="7" y="11.6667" width="9.33333" height="1.16667" fill="#313866"/>
<rect x="7" y="14" width="4.66667" height="1.16667" fill="#313866"/>
<path fill-rule="evenodd" clip-rule="evenodd" d="M18.2777 24.6945C20.5329 24.6945 22.361 22.8663 22.361 20.6111C22.361 18.356 20.5329 16.5278 18.2777 16.5278C16.0225 16.5278 14.1944 18.356 14.1944 20.6111C14.1944 22.8663 16.0225 24.6945 18.2777 24.6945ZM18.2777 26.0556C21.2846 26.0556 23.7221 23.618 23.7221 20.6111C23.7221 17.6042 21.2846 15.1667 18.2777 15.1667C15.2708 15.1667 12.8333 17.6042 12.8333 20.6111C12.8333 23.618 15.2708 26.0556 18.2777 26.0556Z" fill="#313866"/>
<path fill-rule="evenodd" clip-rule="evenodd" d="M23.2409 27.2174L21.1992 25.1757L22.1617 24.2133L24.2033 26.2549L23.2409 27.2174Z" fill="#313866"/>
</svg>
